<svg width="128" height="128" viewBox="0 0 128 128" fill="none" xmlns="http://www.w3.org/2000/svg">
  <defs>
    <linearGradient id="bg" x1="0" y1="0" x2="128" y2="128">
      <stop offset="0%" stop-color="#4F46E5"/>
      <stop offset="100%" stop-color="#2563EB"/>
    </linearGradient>

    <linearGradient id="plane" x1="0" y1="0" x2="1" y2="1">
      <stop offset="0%" stop-color="#FFFFFF"/>
      <stop offset="100%" stop-color="#DDE7FF"/>
    </linearGradient>
  </defs>

  <rect width="128" height="128" rx="32" fill="url(#bg)"/>

  <circle cx="64" cy="64" r="38" fill="#ffffff15" stroke="#ffffff25" stroke-width="2"/>

  <path
    d="M28 74L58 61L91 33C95 30 99 35 96 39L72 69L84 99C85 103 80 106 77 103L59 82L36 88C31 89 27 83 31 79L44 68L28 74Z"
    fill="url(#plane)"
  />

  <path
    d="M34 92C48 82 67 77 94 78"
    stroke="#F59E0B"
    stroke-width="6"
    stroke-linecap="round"
  />
</svg>